<svg xmlns="http://www.w3.org/2000/svg" viewBox="0 0 225.35 45.07"><defs><style>.fffe20cc-896b-43e9-adab-117c0b031f90{opacity:0.44;}.fb3e6d8c-5cd1-4a1c-a000-6763cbc5d2c4{fill:#1c447d;}</style></defs><title>binance</title><g id="b51f4fec-b3a2-4449-be5c-3c0b97e9d7e0" data-name="Слой 2"><g id="e5cbeaaf-0474-46c0-9228-8dc9e0ca2a7c" data-name="Слой 1"><g class="fffe20cc-896b-43e9-adab-117c0b031f90"><polygon class="fb3e6d8c-5cd1-4a1c-a000-6763cbc5d2c4" points="13.78 18.94 22.54 10.19 31.29 18.94 36.38 13.85 22.54 0 8.69 13.85 13.78 18.94"/><rect class="fb3e6d8c-5cd1-4a1c-a000-6763cbc5d2c4" x="1.49" y="18.93" width="7.2" height="7.2" transform="translate(-14.44 10.2) rotate(-45)"/><polygon class="fb3e6d8c-5cd1-4a1c-a000-6763cbc5d2c4" points="13.78 26.13 22.54 34.88 31.29 26.13 36.39 31.22 36.38 31.22 22.54 45.07 8.69 31.22 8.68 31.22 13.78 26.13"/><rect class="fb3e6d8c-5cd1-4a1c-a000-6763cbc5d2c4" x="36.38" y="18.94" width="7.2" height="7.2" transform="translate(-4.23 34.87) rotate(-45)"/><polygon class="fb3e6d8c-5cd1-4a1c-a000-6763cbc5d2c4" points="27.7 22.53 27.7 22.53 22.54 17.36 18.72 21.18 18.72 21.18 18.28 21.62 17.37 22.53 17.37 22.53 17.36 22.54 17.37 22.54 22.54 27.71 27.7 22.54 27.71 22.54 27.7 22.53"/><path class="fb3e6d8c-5cd1-4a1c-a000-6763cbc5d2c4" d="M53,10.92H64.09q4.13,0,6.23,2.12A5.51,5.51,0,0,1,72,17.1v.07A5.87,5.87,0,0,1,71.71,19,6,6,0,0,1,71,20.4a5.22,5.22,0,0,1-1,1.1,6.07,6.07,0,0,1-1.2.82,8.1,8.1,0,0,1,3.26,2.14,5.47,5.47,0,0,1,1.19,3.74v.06a6.19,6.19,0,0,1-.63,2.87,5.47,5.47,0,0,1-1.81,2.05A8.23,8.23,0,0,1,68,34.41a15.35,15.35,0,0,1-3.66.41H53Zm10,9.66A5.61,5.61,0,0,0,65.75,20a2.08,2.08,0,0,0,1-1.93V18a2.11,2.11,0,0,0-.89-1.83,4.38,4.38,0,0,0-2.56-.63H58.13v5Zm1.4,9.63a5.06,5.06,0,0,0,2.73-.63,2.16,2.16,0,0,0,1-2v-.07a2.27,2.27,0,0,0-.92-1.9,5,5,0,0,0-3-.7H58.13v5.26Z"/><path class="fb3e6d8c-5cd1-4a1c-a000-6763cbc5d2c4" d="M79.89,10.92h5.26v23.9H79.89Z"/><path class="fb3e6d8c-5cd1-4a1c-a000-6763cbc5d2c4" d="M93.11,10.92H98l11.2,14.72V10.92h5.19v23.9h-4.48L98.3,19.63V34.82H93.11Z"/><path class="fb3e6d8c-5cd1-4a1c-a000-6763cbc5d2c4" d="M130.27,10.75h4.84l10.25,24.07h-5.5l-2.18-5.36H127.57l-2.19,5.36H120Zm5.53,14.07-3.18-7.75-3.17,7.75Z"/><path class="fb3e6d8c-5cd1-4a1c-a000-6763cbc5d2c4" d="M151,10.92h4.85l11.2,14.72V10.92h5.19v23.9H167.8L156.22,19.63V34.82H151Z"/><path class="fb3e6d8c-5cd1-4a1c-a000-6763cbc5d2c4" d="M191.19,35.23a12.32,12.32,0,0,1-4.88-1,11.77,11.77,0,0,1-6.45-6.52,12.45,12.45,0,0,1-.92-4.81v-.07a12.36,12.36,0,0,1,.92-4.8,12.21,12.21,0,0,1,2.56-3.92,11.8,11.8,0,0,1,3.93-2.67,12.91,12.91,0,0,1,5.05-1,16,16,0,0,1,3,.27,13,13,0,0,1,2.51.76,10.09,10.09,0,0,1,2.09,1.16,13.37,13.37,0,0,1,1.77,1.5l-3.34,3.86a12.45,12.45,0,0,0-2.85-2,7.27,7.27,0,0,0-3.27-.72,6.62,6.62,0,0,0-5,2.18A7.63,7.63,0,0,0,185,19.92a7.87,7.87,0,0,0-.52,2.88v.07a8,8,0,0,0,.52,2.9,7.59,7.59,0,0,0,1.41,2.39,6.42,6.42,0,0,0,2.19,1.62,6.53,6.53,0,0,0,2.81.6,7.35,7.35,0,0,0,3.47-.75,13.56,13.56,0,0,0,2.82-2.05L201,31a17.61,17.61,0,0,1-1.91,1.78,11.64,11.64,0,0,1-2.17,1.35,11.24,11.24,0,0,1-2.57.85A15.93,15.93,0,0,1,191.19,35.23Z"/><path class="fb3e6d8c-5cd1-4a1c-a000-6763cbc5d2c4" d="M207.18,10.92h18V15.6h-12.8v4.85h11.27v4.67H212.37v5h13v4.68H207.18Z"/></g></g></g></svg>