<svg xmlns="http://www.w3.org/2000/svg" viewBox="0 0 175.84 43.77"><defs><style>.bcd0e125-7249-4399-9d5d-af9715a32e3a{fill:#00aced;}.afaf07ac-79be-4a04-a7dc-0cdadccecce0{fill:#fff;}.ae8154f9-8cda-43a3-9d27-e983323e21f8{fill:#3f3f41;}</style></defs><title>bitgo_hover</title><g id="b9c75871-6c67-44c3-bd4a-85fa5d3a3bec" data-name="Слой 2"><g id="bb392b99-8f55-44e7-850f-d1f8fdd63cd5" data-name="Слой 1"><path class="bcd0e125-7249-4399-9d5d-af9715a32e3a" d="M18.72,43.77S37.44,37.4,37.44,14V5.6a1.73,1.73,0,0,0-1.62-1.72C32.42,3.72,24.36,3,18.72,0,13.07,3,5,3.72,1.61,3.88A1.72,1.72,0,0,0,0,5.6V14C0,37.4,18.72,43.77,18.72,43.77Z"/><path id="b45061ce-ecfd-4b5c-9ce5-ba84b235183f" data-name="symbol" class="afaf07ac-79be-4a04-a7dc-0cdadccecce0" d="M26.28,17.09c-.23-2.55-2.41-3.43-5.19-3.69V9.83H18.94v3.45H17.2V9.81H15v3.54H10.69v2.27h2.76V27H11l0,2.59s3.41,0,3.92,0V33.2h2.14V29.67l1.72,0v3.53H21V29.67c3.63-.19,6.17-1.08,6.51-4.48.27-2.74-1-4-3.06-4.48a3.35,3.35,0,0,0,1.87-3.62Zm-3.07,7.64c0,2.68-4.56,2.34-6,2.33V22.32C18.64,22.33,23.23,21.94,23.21,24.73Zm-1-6.7c0,2.43-3.79,2.12-5,2.11v-4.3C18.45,15.85,22.27,15.49,22.25,18Z"/><path class="ae8154f9-8cda-43a3-9d27-e983323e21f8" d="M74.64,29a9.18,9.18,0,0,1-1.11,4.7,8.77,8.77,0,0,1-2.93,3.06,12.87,12.87,0,0,1-4.17,1.66,23,23,0,0,1-4.79.5H48.06V4.84H61.64a21,21,0,0,1,4,.41,11.84,11.84,0,0,1,3.76,1.4,7.78,7.78,0,0,1,2.74,2.67,7.87,7.87,0,0,1,1.06,4.28,7.09,7.09,0,0,1-1.54,4.7,8.54,8.54,0,0,1-4,2.67v.1a9.44,9.44,0,0,1,2.72.89,7.78,7.78,0,0,1,2.21,1.66A7.67,7.67,0,0,1,74.09,26,7.9,7.9,0,0,1,74.64,29ZM65.3,14.71A2.73,2.73,0,0,0,64,12.18a7.74,7.74,0,0,0-3.92-.79H56v7h4.43A5.91,5.91,0,0,0,64,17.48,3.23,3.23,0,0,0,65.3,14.71Zm1.11,13.53a3,3,0,0,0-1.59-2.93,9.27,9.27,0,0,0-4.24-.82H56v7.8h4.62a12.76,12.76,0,0,0,2-.17,6.13,6.13,0,0,0,1.87-.6,3.41,3.41,0,0,0,1.91-3.28Z"/><path class="ae8154f9-8cda-43a3-9d27-e983323e21f8" d="M85.59,7.3A4,4,0,0,1,85.23,9a4.53,4.53,0,0,1-1,1.38,4.42,4.42,0,0,1-1.44.91,4.6,4.6,0,0,1-1.76.34,4.45,4.45,0,0,1-3.23-1.28,4.15,4.15,0,0,1-1.3-3,4.33,4.33,0,0,1,.34-1.67,4.14,4.14,0,0,1,1-1.37,5.32,5.32,0,0,1,1.45-.94A4.36,4.36,0,0,1,81.06,3a4.6,4.6,0,0,1,1.76.34,4.42,4.42,0,0,1,1.44.91,4.53,4.53,0,0,1,1,1.38A4.1,4.1,0,0,1,85.59,7.3ZM77.11,38.93V15H85v24Z"/><path class="ae8154f9-8cda-43a3-9d27-e983323e21f8" d="M99.32,20.83V30a4.15,4.15,0,0,0,.65,2.54,2.82,2.82,0,0,0,2.34.85,9.24,9.24,0,0,0,1.23-.1,4.41,4.41,0,0,0,1.08-.29l.1,5.78a13.13,13.13,0,0,1-2.07.5,14.19,14.19,0,0,1-2.51.22,11.83,11.83,0,0,1-4-.6,6.26,6.26,0,0,1-2.63-1.74,6.86,6.86,0,0,1-1.42-2.7,13.16,13.16,0,0,1-.43-3.5V20.83H87.77V15h3.8V8.64h7.75V15H105v5.88Z"/><path class="ae8154f9-8cda-43a3-9d27-e983323e21f8" d="M133.54,39a30.5,30.5,0,0,1-7.3.82,21,21,0,0,1-7.53-1.3,17.54,17.54,0,0,1-5.93-3.66,16.67,16.67,0,0,1-3.87-5.66,18.51,18.51,0,0,1-1.4-7.34,18.66,18.66,0,0,1,1.42-7.42,16.63,16.63,0,0,1,3.93-5.66,17.26,17.26,0,0,1,5.87-3.58A20.61,20.61,0,0,1,126,3.92a22.28,22.28,0,0,1,7.51,1.23,15.56,15.56,0,0,1,5.64,3.3L134,14.37a9.08,9.08,0,0,0-3.18-2.28,10.7,10.7,0,0,0-4.48-.89,10,10,0,0,0-4,.79,9.46,9.46,0,0,0-3.17,2.22,10,10,0,0,0-2.1,3.37,11.77,11.77,0,0,0-.75,4.26,13.28,13.28,0,0,0,.68,4.33,9.25,9.25,0,0,0,2,3.4,9.14,9.14,0,0,0,3.27,2.21,11.75,11.75,0,0,0,4.46.8,17.18,17.18,0,0,0,2.74-.22,10.07,10.07,0,0,0,2.41-.7V25.45h-6.5V18.8h14.06V36.86A25.79,25.79,0,0,1,133.54,39Z"/><path class="ae8154f9-8cda-43a3-9d27-e983323e21f8" d="M169.08,26.85A12.93,12.93,0,0,1,168,32.17a12,12,0,0,1-2.89,4,13.15,13.15,0,0,1-4.24,2.58,15,15,0,0,1-10.28,0,12.79,12.79,0,0,1-4.23-2.58,12.07,12.07,0,0,1-2.87-4,12.93,12.93,0,0,1-1.06-5.32,12.73,12.73,0,0,1,1.06-5.3,11.9,11.9,0,0,1,2.87-4,12.45,12.45,0,0,1,4.23-2.5,15.62,15.62,0,0,1,10.28,0,12.79,12.79,0,0,1,4.24,2.5,11.82,11.82,0,0,1,2.89,4A12.73,12.73,0,0,1,169.08,26.85Zm-7.61,0a7.07,7.07,0,0,0-.38-2.27A6,6,0,0,0,160,22.63a5.65,5.65,0,0,0-1.78-1.37,5.5,5.5,0,0,0-2.46-.53,5.42,5.42,0,0,0-2.45.53,5.25,5.25,0,0,0-1.76,1.37,5.75,5.75,0,0,0-1.06,1.95,7.31,7.31,0,0,0,0,4.53,6.25,6.25,0,0,0,1.08,2,5.38,5.38,0,0,0,1.78,1.42,6,6,0,0,0,4.92,0A5.38,5.38,0,0,0,160,31.11a6.25,6.25,0,0,0,1.08-2A7.27,7.27,0,0,0,161.47,26.85Z"/><path class="ae8154f9-8cda-43a3-9d27-e983323e21f8" d="M173.08,34.24A2.73,2.73,0,1,1,170.3,37,2.72,2.72,0,0,1,173.08,34.24Zm0,.44A2.29,2.29,0,1,0,175.31,37,2.22,2.22,0,0,0,173.08,34.68Zm-.58,3.87H172V35.39h1.21c.75,0,1.12.28,1.12.9a.83.83,0,0,1-.83.87l.9,1.39h-.53L173,37.18h-.54Zm0-1.77h.57c.59,0,.78-.17.78-.52s-.15-.47-.7-.47h-.65Z"/></g></g></svg>