<svg xmlns="http://www.w3.org/2000/svg" viewBox="0 0 264.12 43.77"><defs><style>.f83879ba-b4d1-4f5d-b59d-b1b3fea7e318{fill:#90134f;}.fd2f8eb4-298f-45a0-b8c1-0632b1dcb418{fill:#00b1be;}</style></defs><title>forte_hover</title><g id="a84f1400-972f-400e-a0de-979f4f3a1e89" data-name="Слой 2"><g id="b722f77f-264b-4487-a472-54449112580a" data-name="Слой 1"><path class="f83879ba-b4d1-4f5d-b59d-b1b3fea7e318" d="M63.88,12.23l0,3.65v2.95H74a11.76,11.76,0,0,1,.38,3.06A11.9,11.9,0,0,1,74,25H63.93V37.82a20.44,20.44,0,0,1-3.72.28,20.29,20.29,0,0,1-3.72-.28V6.15l.32-.28h20a12.6,12.6,0,0,1,.28,2.92,3.28,3.28,0,0,1-1,2.6,4.53,4.53,0,0,1-3,.84Z"/><path class="f83879ba-b4d1-4f5d-b59d-b1b3fea7e318" d="M96,16.53q3.38,3.38,3.37,9.64a16.67,16.67,0,0,1-.73,5.1,11,11,0,0,1-2.1,3.91,9.26,9.26,0,0,1-3.39,2.48,11.6,11.6,0,0,1-4.64.86,11.2,11.2,0,0,1-4.6-.88,9.46,9.46,0,0,1-3.37-2.51,10.65,10.65,0,0,1-2.08-3.9,17.19,17.19,0,0,1-.71-5.06,17,17,0,0,1,.71-5.07,11.12,11.12,0,0,1,2-3.91,9.23,9.23,0,0,1,3.37-2.53,11.41,11.41,0,0,1,4.63-.89A10.32,10.32,0,0,1,96,16.53Zm-7.46,2.72a2.63,2.63,0,0,0-1.67.49,3.36,3.36,0,0,0-1,1.33A7.14,7.14,0,0,0,85.35,23a19.5,19.5,0,0,0-.14,2.37q0,2,.12,3.39a9.35,9.35,0,0,0,.47,2.38,3,3,0,0,0,1,1.43,2.78,2.78,0,0,0,1.67.47,2.63,2.63,0,0,0,2.74-1.8,15.52,15.52,0,0,0,.66-5.12A15.31,15.31,0,0,0,91.2,21,2.56,2.56,0,0,0,88.56,19.25Z"/><path class="f83879ba-b4d1-4f5d-b59d-b1b3fea7e318" d="M102.2,17.84a8.51,8.51,0,0,1,.88-2.08,5.71,5.71,0,0,1,1.32-1.66,6.62,6.62,0,0,1,6,4.26q1.78-4.21,5.85-4.21a16.31,16.31,0,0,1,3.09.37,14.46,14.46,0,0,1-.49,3.44,12,12,0,0,1-1.34,3.39,12.64,12.64,0,0,0-2.38-.47,4.44,4.44,0,0,0-3.84,2.39V37.82a20.25,20.25,0,0,1-3.62.28,21.12,21.12,0,0,1-3.68-.28V22.71Q104,19.2,102.2,17.84Z"/><path class="f83879ba-b4d1-4f5d-b59d-b1b3fea7e318" d="M137.61,14.43a12,12,0,0,1,.28,2.6,11.52,11.52,0,0,1-.28,2.55l-5.56-.1V30.24c0,1.47.68,2.2,2,2.2h2.62a9.19,9.19,0,0,1,.61,3.12,7.91,7.91,0,0,1-.18,2,46.77,46.77,0,0,1-6.37.48q-5.9,0-5.89-6.52v-12l-3.65,0a9.27,9.27,0,0,1-.33-2.53,10.22,10.22,0,0,1,.33-2.62l3.65.09V11.81a5,5,0,0,1,.91-3.39,4,4,0,0,1,3.06-1h2.86l.33.33v6.78Z"/><path class="f83879ba-b4d1-4f5d-b59d-b1b3fea7e318" d="M159.37,28.51H147.2a5.25,5.25,0,0,0,1.08,3.24,4,4,0,0,0,3.21,1.16,12.56,12.56,0,0,0,2.59-.32,24.43,24.43,0,0,0,3.38-1,7.51,7.51,0,0,1,1.91,4.31,15.38,15.38,0,0,1-9.17,2.66,11.64,11.64,0,0,1-4.94-.93A8.49,8.49,0,0,1,142,35a10.6,10.6,0,0,1-1.75-4,23.1,23.1,0,0,1-.51-5,17.71,17.71,0,0,1,.63-4.84,11.26,11.26,0,0,1,1.91-3.86,8.89,8.89,0,0,1,3.28-2.57,10.92,10.92,0,0,1,4.66-.94,10.42,10.42,0,0,1,4,.75,9.06,9.06,0,0,1,3.07,2.06,8.9,8.9,0,0,1,1.94,3.14,11.33,11.33,0,0,1,.68,4A16.64,16.64,0,0,1,159.37,28.51Zm-12.21-5.05h6.13v-.52a5,5,0,0,0-.77-2.85,2.6,2.6,0,0,0-2.3-1.12A2.48,2.48,0,0,0,148,20,7,7,0,0,0,147.16,23.46Z"/><path class="f83879ba-b4d1-4f5d-b59d-b1b3fea7e318" d="M165.5,5.77,172,5.63c1.79,0,3.23,0,4.32,0q5.1,0,8,2.13a7.36,7.36,0,0,1,2.92,6.38,6.94,6.94,0,0,1-1.16,3.84,6.84,6.84,0,0,1-3,2.57,7.26,7.26,0,0,1,2.22,1.19,8.63,8.63,0,0,1,1.8,1.92A10.67,10.67,0,0,1,188.31,26a8.21,8.21,0,0,1,.44,2.64q0,4.82-3.06,7.14T177,38.1c-1.16,0-2.69,0-4.59,0l-6.92-.14-.33-.33V6.1Zm7.11,5.1v7.54h3.3a3.89,3.89,0,0,0,3.14-1.1,4.12,4.12,0,0,0,.9-2.69A3.86,3.86,0,0,0,179,12a4,4,0,0,0-3.11-1.05H174C173.48,10.92,173,10.9,172.61,10.87Zm3.86,12.87h-3.86v9.12c.8,0,1.71,0,2.72,0a11.6,11.6,0,0,0,2.82-.23,3.82,3.82,0,0,0,2.18-1.36,4.56,4.56,0,0,0,.89-3,4.77,4.77,0,0,0-1.14-3.18A4.45,4.45,0,0,0,176.47,23.74Z"/><path class="f83879ba-b4d1-4f5d-b59d-b1b3fea7e318" d="M213,34.45a7.85,7.85,0,0,1-.89,2.11,5.57,5.57,0,0,1-1.35,1.64,6.2,6.2,0,0,1-5.06-2.48,9.55,9.55,0,0,1-6.59,2.8,8,8,0,0,1-3.19-.58,6.81,6.81,0,0,1-2.29-1.57,6.41,6.41,0,0,1-1.4-2.27,7.81,7.81,0,0,1-.47-2.69,8,8,0,0,1,.73-3.53,7.07,7.07,0,0,1,2-2.53,9.07,9.07,0,0,1,2.95-1.52,12.33,12.33,0,0,1,3.6-.51l1.9,0,1.43.07v-.9q0-3-3-3a27.3,27.3,0,0,0-6.87,1.54,9.28,9.28,0,0,1-1.78-5.1c.75-.28,1.58-.54,2.5-.79s1.87-.47,2.83-.66,1.92-.33,2.86-.44a21.73,21.73,0,0,1,2.52-.17,10.74,10.74,0,0,1,3.16.47,7.64,7.64,0,0,1,2.67,1.43A6.81,6.81,0,0,1,211,18.29a8.87,8.87,0,0,1,.68,3.63v9.49A3.4,3.4,0,0,0,213,34.45ZM198.9,30.94c0,1.47.84,2.2,2.53,2.2a4.91,4.91,0,0,0,2.95-1.35V28L202.81,28l-1,0C199.88,28,198.9,29,198.9,30.94Z"/><path class="f83879ba-b4d1-4f5d-b59d-b1b3fea7e318" d="M237.31,22.38V32a7.88,7.88,0,0,0,1.13,4.64,6.19,6.19,0,0,1-4.26,1.59c-1.62,0-2.73-.38-3.32-1.13a5.37,5.37,0,0,1-.89-3.41v-10a5,5,0,0,0-.42-2.34,1.73,1.73,0,0,0-1.64-.75,4.15,4.15,0,0,0-1.59.38,6.48,6.48,0,0,0-1.83,1.22V37.82a14.13,14.13,0,0,1-1.73.21c-.62,0-1.26.07-1.92.07s-1.29,0-1.91-.07a14.3,14.3,0,0,1-1.74-.21V14.48l.33-.33h2.76a3.77,3.77,0,0,1,3.84,2.8,9.89,9.89,0,0,1,6.5-2.89,5.84,5.84,0,0,1,5,2.26A9.86,9.86,0,0,1,237.31,22.38Z"/><path class="f83879ba-b4d1-4f5d-b59d-b1b3fea7e318" d="M260.71,28.51l1.17,3.42q.93,3.09,2.24,4a6.38,6.38,0,0,1-4.91,2.3,3.38,3.38,0,0,1-2.34-.73,6,6,0,0,1-1.4-2.55l-1.41-4A4.11,4.11,0,0,0,253,29a2.55,2.55,0,0,0-1.64-.5c-.69,0-1.17,0-1.45.05v9.31a22.71,22.71,0,0,1-7.11,0V3.71l.32-.32h2.81a4,4,0,0,1,3.09,1,5.12,5.12,0,0,1,.89,3.42V22.48h.75a1.45,1.45,0,0,0,1.31-.85L254.39,17a4.32,4.32,0,0,1,4.12-2.66c.9,0,2.26,0,4.07.09l.28.38-3.6,7a7.54,7.54,0,0,1-2.39,2.76A6.19,6.19,0,0,1,260.71,28.51Z"/><path class="fd2f8eb4-298f-45a0-b8c1-0632b1dcb418" d="M43.83,19.55a1.37,1.37,0,0,0-1.25-.79H38.8a1.41,1.41,0,0,0-.93.36A10.59,10.59,0,0,1,29.78,22c-5.46-.35-9.53-4.46-9.47-9.55a7,7,0,0,1,7.07-6.91h0a5.62,5.62,0,0,1,4.14,1.92,4,4,0,0,1,.62,1,1.39,1.39,0,0,1,0,.88,1.42,1.42,0,0,1-1.7.86h0A3.82,3.82,0,0,0,29,9.9a4,4,0,0,0-2.6,7,.61.61,0,0,0,.19.17l.09.06,0,0,.16.13a7,7,0,0,0,6.47.19,8.46,8.46,0,0,0,4.49-6.39,8.91,8.91,0,0,0-2.12-7.21A11.2,11.2,0,0,0,27.45,0H27.3A12.58,12.58,0,0,0,14.77,12.39a15.07,15.07,0,0,0,.49,3.93c-.24,0-.48-.06-.72-.07A16.43,16.43,0,0,0,.31,22.75a1.38,1.38,0,0,0-.17,1.48A1.38,1.38,0,0,0,1.39,25H5.17a1.35,1.35,0,0,0,.93-.37,10.56,10.56,0,0,1,8.09-2.88c5.45.36,9.53,4.46,9.47,9.55a7,7,0,0,1-7.07,6.91,5.62,5.62,0,0,1-4.15-1.92,4.31,4.31,0,0,1-.61-1,1.36,1.36,0,0,1,0-.87,1.41,1.41,0,0,1,1.69-.86h0a4,4,0,0,0,5.12-2.38,4,4,0,0,0-1.15-4.38.58.58,0,0,0-.19-.16l-.09-.06,0,0a.61.61,0,0,0-.16-.12,7,7,0,0,0-6.47-.2A8.46,8.46,0,0,0,6.1,32.68a8.89,8.89,0,0,0,2.12,7.21,11.17,11.17,0,0,0,8.3,3.88h.15A12.58,12.58,0,0,0,29.2,31.38a15.5,15.5,0,0,0-.49-3.93l.72.08c.37,0,.75,0,1.12,0A16.49,16.49,0,0,0,43.66,21,1.4,1.4,0,0,0,43.83,19.55Z"/></g></g></svg>