<svg xmlns="http://www.w3.org/2000/svg" viewBox="0 0 421.72 418.92"><defs><style>.e5c535c7-5314-4e87-a722-b49871d27947{opacity:0.35;}.aa94227f-9abc-4fb4-8f41-64a4fb9f5bd4{fill:#3278cc;}</style></defs><title>bg_particles</title><g id="b3854a89-a196-4815-972f-10af510b40be" data-name="Слой 2"><g id="e7fd0141-923f-4fa4-a4a0-163b84a18bd2" data-name="Слой 1"><g class="e5c535c7-5314-4e87-a722-b49871d27947"><circle class="aa94227f-9abc-4fb4-8f41-64a4fb9f5bd4" cx="4.02" cy="414.9" r="4.02"/><circle class="aa94227f-9abc-4fb4-8f41-64a4fb9f5bd4" cx="86.76" cy="414.9" r="4.02"/><circle class="aa94227f-9abc-4fb4-8f41-64a4fb9f5bd4" cx="169.49" cy="414.9" r="4.02"/><circle class="aa94227f-9abc-4fb4-8f41-64a4fb9f5bd4" cx="252.23" cy="414.9" r="4.02"/><circle class="aa94227f-9abc-4fb4-8f41-64a4fb9f5bd4" cx="334.96" cy="414.9" r="4.02"/><circle class="aa94227f-9abc-4fb4-8f41-64a4fb9f5bd4" cx="417.7" cy="414.9" r="4.02"/><circle class="aa94227f-9abc-4fb4-8f41-64a4fb9f5bd4" cx="4.02" cy="332.72" r="4.02"/><circle class="aa94227f-9abc-4fb4-8f41-64a4fb9f5bd4" cx="86.76" cy="332.72" r="4.02"/><circle class="aa94227f-9abc-4fb4-8f41-64a4fb9f5bd4" cx="169.49" cy="332.72" r="4.02"/><circle class="aa94227f-9abc-4fb4-8f41-64a4fb9f5bd4" cx="252.23" cy="332.72" r="4.02"/><circle class="aa94227f-9abc-4fb4-8f41-64a4fb9f5bd4" cx="334.96" cy="332.72" r="4.02"/><circle class="aa94227f-9abc-4fb4-8f41-64a4fb9f5bd4" cx="417.7" cy="332.72" r="4.02"/><circle class="aa94227f-9abc-4fb4-8f41-64a4fb9f5bd4" cx="4.02" cy="250.55" r="4.02"/><circle class="aa94227f-9abc-4fb4-8f41-64a4fb9f5bd4" cx="86.76" cy="250.55" r="4.02"/><circle class="aa94227f-9abc-4fb4-8f41-64a4fb9f5bd4" cx="169.49" cy="250.55" r="4.02"/><circle class="aa94227f-9abc-4fb4-8f41-64a4fb9f5bd4" cx="252.23" cy="250.55" r="4.02"/><circle class="aa94227f-9abc-4fb4-8f41-64a4fb9f5bd4" cx="334.96" cy="250.55" r="4.02"/><circle class="aa94227f-9abc-4fb4-8f41-64a4fb9f5bd4" cx="417.7" cy="250.55" r="4.02"/><circle class="aa94227f-9abc-4fb4-8f41-64a4fb9f5bd4" cx="4.02" cy="168.37" r="4.02"/><circle class="aa94227f-9abc-4fb4-8f41-64a4fb9f5bd4" cx="86.76" cy="168.37" r="4.02"/><circle class="aa94227f-9abc-4fb4-8f41-64a4fb9f5bd4" cx="169.49" cy="168.37" r="4.02"/><circle class="aa94227f-9abc-4fb4-8f41-64a4fb9f5bd4" cx="252.23" cy="168.37" r="4.02"/><circle class="aa94227f-9abc-4fb4-8f41-64a4fb9f5bd4" cx="334.96" cy="168.37" r="4.02"/><circle class="aa94227f-9abc-4fb4-8f41-64a4fb9f5bd4" cx="417.7" cy="168.37" r="4.02"/><circle class="aa94227f-9abc-4fb4-8f41-64a4fb9f5bd4" cx="4.02" cy="86.2" r="4.02"/><circle class="aa94227f-9abc-4fb4-8f41-64a4fb9f5bd4" cx="86.76" cy="86.2" r="4.02"/><circle class="aa94227f-9abc-4fb4-8f41-64a4fb9f5bd4" cx="169.49" cy="86.2" r="4.02"/><circle class="aa94227f-9abc-4fb4-8f41-64a4fb9f5bd4" cx="252.23" cy="86.2" r="4.02"/><circle class="aa94227f-9abc-4fb4-8f41-64a4fb9f5bd4" cx="334.96" cy="86.2" r="4.02"/><circle class="aa94227f-9abc-4fb4-8f41-64a4fb9f5bd4" cx="417.7" cy="86.2" r="4.02"/><circle class="aa94227f-9abc-4fb4-8f41-64a4fb9f5bd4" cx="4.02" cy="4.02" r="4.02"/><circle class="aa94227f-9abc-4fb4-8f41-64a4fb9f5bd4" cx="86.76" cy="4.02" r="4.02"/><circle class="aa94227f-9abc-4fb4-8f41-64a4fb9f5bd4" cx="169.49" cy="4.02" r="4.02"/><circle class="aa94227f-9abc-4fb4-8f41-64a4fb9f5bd4" cx="252.23" cy="4.02" r="4.02"/><circle class="aa94227f-9abc-4fb4-8f41-64a4fb9f5bd4" cx="334.96" cy="4.02" r="4.02"/><circle class="aa94227f-9abc-4fb4-8f41-64a4fb9f5bd4" cx="417.7" cy="4.02" r="4.02"/></g></g></g></svg>