<svg xmlns="http://www.w3.org/2000/svg" viewBox="0 0 60.22 80.18"><defs><style>.b8ba04be-d99d-4b82-bdf8-69f9a288207c{fill:#1f3c70;}</style></defs><title>def_icon3</title><g id="ff51055b-0a66-42b0-b505-b17083a17fb3" data-name="Слой 2"><g id="f27a66ef-fe5d-42c1-b40c-a704b74135c8" data-name="Слой 1"><path class="b8ba04be-d99d-4b82-bdf8-69f9a288207c" d="M30.11,0A30,30,0,0,0,0,30c0,.48,0,1,0,1.44,0,.08,0,.16,0,.23C1,49.07,15.68,68,24.18,77.52a7.94,7.94,0,0,0,11.86,0C44.54,68,59.26,49.07,60.17,31.65c0-.07,0-.15,0-.23,0-.48,0-1,0-1.44A30,30,0,0,0,30.11,0ZM56,31.23v.2c-.84,16.08-14.82,34-23.07,43.29a3.74,3.74,0,0,1-5.6,0C19.06,65.46,5.08,47.51,4.24,31.42v-.19c0-.42,0-.83,0-1.25A25.91,25.91,0,0,1,56,30C56,30.4,56,30.81,56,31.23Z"/><path class="b8ba04be-d99d-4b82-bdf8-69f9a288207c" d="M41.35,25.09H38.71V21.45a8.6,8.6,0,0,0-17.2,0v3.64H18.87a1.46,1.46,0,0,0-1.46,1.46V41a1.46,1.46,0,0,0,1.46,1.46H41.35A1.46,1.46,0,0,0,42.81,41V26.55A1.46,1.46,0,0,0,41.35,25.09Zm-5.33,0H24.2V21.45a5.91,5.91,0,0,1,11.82,0Z"/></g></g></svg>