<svg xmlns="http://www.w3.org/2000/svg" viewBox="0 0 80.18 80.18"><defs><style>.a41caf9b-7fea-42db-adb4-753c68d72cb9{fill:#1f3c70;}</style></defs><title>def_icon2</title><g id="f0ff72ae-a55b-46d9-9c70-756489148a1e" data-name="Слой 2"><g id="b887b535-0b49-4890-84d6-9f76dc969167" data-name="Слой 1"><path class="a41caf9b-7fea-42db-adb4-753c68d72cb9" d="M76.62,47H33.23V22.87a3.56,3.56,0,0,0-3.56-3.56H29.2v-16A3.32,3.32,0,0,0,25.89,0H7.34A3.32,3.32,0,0,0,4,3.32v16H3.56A3.56,3.56,0,0,0,0,22.87v40.7A16.62,16.62,0,0,0,16.62,80.18h60a3.56,3.56,0,0,0,3.56-3.56V50.51A3.56,3.56,0,0,0,76.62,47ZM7.89,3.87H25.34V19.31H7.89ZM4.2,23.51H29V47H16.62A16.54,16.54,0,0,0,4.2,52.55ZM76,76H16.62a12.3,12.3,0,0,1-5.8-1.44l-.32-.18q-.32-.18-.63-.39l-.31-.2c-.25-.17-.5-.36-.74-.55l-.11-.09c-.27-.22-.53-.46-.78-.7l-.24-.25-.51-.56L7,71.35c-.21-.25-.4-.51-.59-.78,0,0,0,0,0-.08-.2-.29-.38-.6-.56-.91l-.15-.29c-.12-.23-.24-.47-.34-.71s-.09-.2-.14-.31q-.19-.48-.36-1v0c-.11-.35-.2-.7-.28-1.06l-.06-.33c0-.27-.09-.54-.12-.82,0-.11,0-.22,0-.33a10.88,10.88,0,0,1-.06-1.14A12.43,12.43,0,0,1,16.62,51.15H76Z"/><rect class="a41caf9b-7fea-42db-adb4-753c68d72cb9" x="10.96" y="6.78" width="2.99" height="8.8"/><rect class="a41caf9b-7fea-42db-adb4-753c68d72cb9" x="19.28" y="6.78" width="2.99" height="8.8"/><path class="a41caf9b-7fea-42db-adb4-753c68d72cb9" d="M12.1,63.57a4.52,4.52,0,1,0,4.52-4.52A4.51,4.51,0,0,0,12.1,63.57Z"/><rect class="a41caf9b-7fea-42db-adb4-753c68d72cb9" x="53.29" y="61.41" width="4.35" height="4.33"/><rect class="a41caf9b-7fea-42db-adb4-753c68d72cb9" x="60.23" y="68.34" width="4.42" height="4.39"/><path class="a41caf9b-7fea-42db-adb4-753c68d72cb9" d="M71.6,57.56a3.15,3.15,0,0,0-3.16-3.15H60.23V65.74H71.6Z"/><path class="a41caf9b-7fea-42db-adb4-753c68d72cb9" d="M67.25,72.72h1.19a3.15,3.15,0,0,0,3.16-3.15V68.34H67.25Z"/><path class="a41caf9b-7fea-42db-adb4-753c68d72cb9" d="M57.63,54.41H56.44a3.15,3.15,0,0,0-3.15,3.15v1.25h4.34Z"/><path class="a41caf9b-7fea-42db-adb4-753c68d72cb9" d="M56.44,72.72h1.19V68.34H53.29v1.23A3.15,3.15,0,0,0,56.44,72.72Z"/></g></g></svg>