<svg xmlns="http://www.w3.org/2000/svg" viewBox="0 0 157.99 145.39"><defs><style>.a57b44b9-136c-45b1-ac29-f8581945de66,.a5cee83e-88e7-4bed-b302-d46feb11c3a7,.aa7f5de7-054d-4722-8689-fe848df9ea03,.ba08f9dc-1ebf-44b7-9f97-f6730284dcca{fill:#1c447d;}.aa7f5de7-054d-4722-8689-fe848df9ea03{opacity:0.15;}.a5cee83e-88e7-4bed-b302-d46feb11c3a7{opacity:0.2;}.b37e28bb-7b5b-4ca4-89df-7afcc85e922c{fill:#1f3c70;}.ba08f9dc-1ebf-44b7-9f97-f6730284dcca{opacity:0.1;}.a57b44b9-136c-45b1-ac29-f8581945de66{opacity:0.3;}</style></defs><title>icon1</title><g id="a80ad71f-b435-4b05-bf21-1edf13569ebe" data-name="Слой 2"><g id="e39f5023-e35e-408a-82dd-8bb3eb91105e" data-name="Слой 1"><path class="aa7f5de7-054d-4722-8689-fe848df9ea03" d="M127.7,137.77a18.69,18.69,0,0,1-17.91-24.07A18.7,18.7,0,1,0,144,128.27,18.69,18.69,0,0,1,127.7,137.77Z"/><circle class="aa7f5de7-054d-4722-8689-fe848df9ea03" cx="57.31" cy="82.4" r="39.64"/><circle class="a5cee83e-88e7-4bed-b302-d46feb11c3a7" cx="57.31" cy="82.4" r="31.5"/><path class="b37e28bb-7b5b-4ca4-89df-7afcc85e922c" d="M57.31,40.88A41.58,41.58,0,0,0,16.8,73.33c-.39,3,2.69,4.07,3.63.93a37.77,37.77,0,1,1,2.3,23.31l0-.06c-1-2-4.49-1-3,2.42a41.51,41.51,0,1,0,37.62-59Z"/><path class="b37e28bb-7b5b-4ca4-89df-7afcc85e922c" d="M15.8,82.83c.12,3.1,3.74,2.89,3.74-.06,0-.48,0-1.58.07-2.63.16-2.45-3.49-3.23-3.75,0C15.79,80.89,15.8,82.68,15.8,82.83Z"/><path class="b37e28bb-7b5b-4ca4-89df-7afcc85e922c" d="M85.14,90.53c0,.07-.07.15-.1.23A29.06,29.06,0,0,1,62.13,111l-.07,0c-3.38.65-2.69,4,.47,3.67a32.75,32.75,0,0,0,26.09-23C89.65,88,86.13,87.53,85.14,90.53Z"/><path class="b37e28bb-7b5b-4ca4-89df-7afcc85e922c" d="M28.8,77.28s0,0,0,0A28.95,28.95,0,0,1,79.64,64c1.7,1.9,4.39-.18,2.66-2.59A32.65,32.65,0,0,0,25.23,76.26C25,77.93,28,80.76,28.8,77.28Z"/><path class="b37e28bb-7b5b-4ca4-89df-7afcc85e922c" d="M56,29.81a5.89,5.89,0,1,1,5.88-5.88A5.89,5.89,0,0,1,56,29.81Zm0-8.36a2.48,2.48,0,1,0,2.47,2.48A2.48,2.48,0,0,0,56,21.45Z"/><path class="b37e28bb-7b5b-4ca4-89df-7afcc85e922c" d="M105.82,11.77a5.89,5.89,0,1,1,5.88-5.88A5.89,5.89,0,0,1,105.82,11.77Zm0-8.36a2.48,2.48,0,1,0,2.47,2.48A2.48,2.48,0,0,0,105.82,3.41Z"/><path class="b37e28bb-7b5b-4ca4-89df-7afcc85e922c" d="M129.54,77.78a5.88,5.88,0,1,1,5.88-5.88A5.89,5.89,0,0,1,129.54,77.78Zm0-8.36A2.48,2.48,0,1,0,132,71.9,2.48,2.48,0,0,0,129.54,69.42Z"/><path class="b37e28bb-7b5b-4ca4-89df-7afcc85e922c" d="M152.1,99.9A5.89,5.89,0,1,1,158,94,5.89,5.89,0,0,1,152.1,99.9Zm0-8.36A2.48,2.48,0,1,0,154.58,94,2.48,2.48,0,0,0,152.1,91.54Z"/><path class="b37e28bb-7b5b-4ca4-89df-7afcc85e922c" d="M93.54,134a5.89,5.89,0,1,1,5.88-5.89A5.89,5.89,0,0,1,93.54,134Zm0-8.37A2.48,2.48,0,1,0,96,128.09,2.49,2.49,0,0,0,93.54,125.61Z"/><rect class="b37e28bb-7b5b-4ca4-89df-7afcc85e922c" x="54.28" y="28.11" width="3.41" height="14.65"/><rect class="b37e28bb-7b5b-4ca4-89df-7afcc85e922c" x="86.24" y="49.67" width="23.96" height="3.41" transform="translate(-12.62 50.8) rotate(-27.32)"/><rect class="b37e28bb-7b5b-4ca4-89df-7afcc85e922c" x="97.95" y="99.35" width="3.41" height="22.44" transform="translate(-41.38 158.16) rotate(-66.62)"/><path class="b37e28bb-7b5b-4ca4-89df-7afcc85e922c" d="M127.84,58.28a22.54,22.54,0,1,1,22.53-22.54A22.56,22.56,0,0,1,127.84,58.28Zm0-41.66A19.13,19.13,0,1,0,147,35.74,19.15,19.15,0,0,0,127.84,16.62Z"/><circle class="aa7f5de7-054d-4722-8689-fe848df9ea03" cx="127.84" cy="35.74" r="20.83"/><path class="b37e28bb-7b5b-4ca4-89df-7afcc85e922c" d="M127.84,138.46a19.4,19.4,0,1,1,19.39-19.4A19.42,19.42,0,0,1,127.84,138.46Zm0-35.38a16,16,0,1,0,16,16A16,16,0,0,0,127.84,103.08Z"/><path class="b37e28bb-7b5b-4ca4-89df-7afcc85e922c" d="M129.54,14.91h-3.41V7.59H110V4.18h16.44a3.1,3.1,0,0,1,3.1,3.1Z"/><rect class="b37e28bb-7b5b-4ca4-89df-7afcc85e922c" x="97.72" y="126.89" width="15.21" height="3.41"/><rect class="b37e28bb-7b5b-4ca4-89df-7afcc85e922c" x="138.26" y="100.08" width="13.01" height="3.41" transform="matrix(0.7, -0.72, 0.72, 0.7, -29.09, 134.82)"/><rect class="b37e28bb-7b5b-4ca4-89df-7afcc85e922c" x="127.83" y="56.56" width="3.41" height="11.21"/><polygon class="b37e28bb-7b5b-4ca4-89df-7afcc85e922c" points="58.04 91.8 51.2 85.31 47.42 89.28 47.42 89.28 58.24 99.55 68.51 88.73 68.51 88.73 64.53 84.96 58.04 91.8"/><rect class="b37e28bb-7b5b-4ca4-89df-7afcc85e922c" x="68.33" y="79.31" width="5.49" height="5.49" transform="translate(-37.37 77.1) rotate(-46.48)"/><rect class="b37e28bb-7b5b-4ca4-89df-7afcc85e922c" x="41.77" y="80" width="5.49" height="5.49" transform="translate(-46.13 58.04) rotate(-46.48)"/><polygon class="b37e28bb-7b5b-4ca4-89df-7afcc85e922c" points="47.08 76.05 51.06 79.83 57.55 72.99 64.39 79.49 68.17 75.51 57.35 65.24 47.08 76.05"/><polygon class="b37e28bb-7b5b-4ca4-89df-7afcc85e922c" points="57.69 78.46 54.86 81.44 54.86 81.44 54.53 81.78 53.86 82.49 53.86 82.5 53.86 82.5 57.9 86.33 61.73 82.3 61.73 82.29 61.73 82.29 61.73 82.29 57.69 78.46"/><path class="b37e28bb-7b5b-4ca4-89df-7afcc85e922c" d="M135.25,31.05c-.27-2.33-2.31-3.08-4.86-3.26l-.07-3.24-2,0,.06,3.17-1.58.05-.06-3.19-2,0,.06,3.25-1.26,0h0l-2.72.05,0,2.12s1.46-.06,1.43,0a1,1,0,0,1,1.16.84l.07,3.7h0l.1,5.18a.7.7,0,0,1-.73.67s-1.44,0-1.44,0l-.35,2.37,2.58-.05,1.41,0,.06,3.29,2,0-.06-3.25,1.58,0,.06,3.24,2,0-.07-3.28c3.32-.25,5.63-1.14,5.86-4.26.19-2.52-1-3.62-2.91-4A3.07,3.07,0,0,0,135.25,31.05Zm-2.63,7.08c0,2.46-4.16,2.26-5.5,2.29L127,36.06C128.37,36,132.57,35.57,132.62,38.13Zm-1-6.12c0,2.23-3.47,2-4.59,2.06l-.07-3.95C128,30.1,131.54,29.68,131.58,32Z"/><path class="b37e28bb-7b5b-4ca4-89df-7afcc85e922c" d="M127.86,119.43h0a3.61,3.61,0,0,0-2.84,1.42c-1,1.15-4.38,5.05-4.38,5.05l2.91-.06s1-1.17,2.23-2.57,1.61-1.65,2.12-1.67h0c.52,0,.89.22,2.18,1.58s2.34,2.48,2.34,2.48l2.91-.06s-3.56-3.76-4.58-4.86A3.59,3.59,0,0,0,127.86,119.43Z"/><path class="b37e28bb-7b5b-4ca4-89df-7afcc85e922c" d="M127.81,118.7h0a3.63,3.63,0,0,0,2.83-1.42c1-1.15,4.38-5,4.38-5l-2.91.06s-1,1.16-2.23,2.57-1.61,1.65-2.12,1.66h0c-.51,0-.88-.22-2.18-1.57s-2.34-2.48-2.34-2.48l-2.9.06s3.55,3.75,4.57,4.86A3.59,3.59,0,0,0,127.81,118.7Z"/><path class="ba08f9dc-1ebf-44b7-9f97-f6730284dcca" d="M57.31,122a39.64,39.64,0,0,1-35.15-58,40.38,40.38,0,1,0,69.28,38.48A39.62,39.62,0,0,1,57.31,122Z"/><path class="ba08f9dc-1ebf-44b7-9f97-f6730284dcca" d="M127.84,56.58A20.83,20.83,0,0,1,113.11,21a22.4,22.4,0,1,0,34.51,21.23A20.83,20.83,0,0,1,127.84,56.58Z"/><circle class="a57b44b9-136c-45b1-ac29-f8581945de66" cx="2.71" cy="115.47" r="2.71"/><circle class="a57b44b9-136c-45b1-ac29-f8581945de66" cx="80.5" cy="22.46" r="2.16"/><circle class="a57b44b9-136c-45b1-ac29-f8581945de66" cx="82.86" cy="143.77" r="1.62"/></g></g></svg>