<svg xmlns="http://www.w3.org/2000/svg" viewBox="0 0 179.45 130.66"><defs><style>.b1c8ead4-6484-4dd8-bdb8-67a83f1dbe7f{fill:#1f3c70;}.b383fe66-0e4d-40d0-97be-bee76d522968,.b4908ccd-ffcf-46e6-bef5-cbca7825634d,.f3a33da3-1936-4750-8907-0d02361251ca{fill:#1c447d;}.b4908ccd-ffcf-46e6-bef5-cbca7825634d{opacity:0.15;}.b383fe66-0e4d-40d0-97be-bee76d522968{opacity:0.3;}</style></defs><title>icon3</title><g id="f27bf98d-3e6c-4650-801e-498b680d790b" data-name="Слой 2"><g id="eae253f3-2d8e-4ff5-b5d6-8de74ced3f22" data-name="Слой 1"><path class="b1c8ead4-6484-4dd8-bdb8-67a83f1dbe7f" d="M156.73,15.28h0l2.61,2.1c3.16,2.56,5.28-1.12,3.29-2.82L159,11.67C156.9,10,154.07,13,156.73,15.28Z"/><path class="b1c8ead4-6484-4dd8-bdb8-67a83f1dbe7f" d="M172.6,28c0,2.91-.61,12.24-7.88,22-7.48,10-18.19,17.36-21.62,19.55C139.67,67.37,129,60.06,121.48,50c-7.27-9.78-7.89-19.12-7.88-22L143.1,4.37l5.18,4.14c2.4,1.93,5.07-1.32,2.29-3.62h0l-5-4a3.87,3.87,0,0,0-4.86,0L110.8,24.78a3.86,3.86,0,0,0-1.46,3c0,3,.5,13.73,8.73,24.79,8.06,10.84,19.61,18.61,23,20.74a3.86,3.86,0,0,0,2.07.6,3.92,3.92,0,0,0,2.08-.6c3.34-2.13,14.89-9.9,22.95-20.74,8.23-11.06,8.76-21.77,8.73-24.79a3.83,3.83,0,0,0-.9-2.43C174,24.08,172.69,26.22,172.6,28Z"/><path class="b4908ccd-ffcf-46e6-bef5-cbca7825634d" d="M145.63,70.31l-2.53.79s-3.92-2.42-4.43-2.71-12.78-9-19.53-18S111,27.91,111,27.91l11.17-9.1a58.54,58.54,0,0,0-93,47.32,58.94,58.94,0,0,0,.57,8.13c2.74-2.74,7.49-6.42,10.47-5.87C43.44,69,50.82,70.11,53.89,75s2.76,11.25,2.86,12.78A6.91,6.91,0,0,1,56.64,90s5.91,1.26,6.69,2.18,1.91,5.73,1.91,8.49-.49,6.74-.49,6.74V120a58.58,58.58,0,0,0,81.31-49.16Z"/><path class="b4908ccd-ffcf-46e6-bef5-cbca7825634d" d="M133.62,64.67c-3.53-2.86-7.35-6-9.88-7.86C118,52.51,115.59,44.33,112.88,37c-1.95-5.31-1.3-8.43-.78-9.77A46,46,0,0,0,41.74,66.13c0,.86,0,1.71.08,2.56,3.65.69,9.44,2.12,12.07,6.33C57,79.93,56.65,86.27,56.75,87.8A6.91,6.91,0,0,1,56.64,90s5.91,1.26,6.69,2.18,1.91,5.73,1.91,8.49c0,1.73-.19,3.93-.33,5.34a45.94,45.94,0,0,0,68.75-39.9C133.66,65.64,133.64,65.16,133.62,64.67Z"/><path class="b1c8ead4-6484-4dd8-bdb8-67a83f1dbe7f" d="M32.16,70.64c-.11-1.45-.18-2.92-.18-4.4a55.69,55.69,0,0,1,75.57-52l.17.05c4.38,1.48,6.58-3.3,2.91-4.94A61.34,61.34,0,0,0,27.27,77.05C28.38,74.91,30.1,72.15,32.16,70.64Z"/><path class="b1c8ead4-6484-4dd8-bdb8-67a83f1dbe7f" d="M143.1,72.08A55.8,55.8,0,0,1,87.69,122a55.23,55.23,0,0,1-22.64-4.83c-.11,1.9-.49,4.07-1.7,5.46A61.34,61.34,0,0,0,149,68.39Z"/><path class="b1c8ead4-6484-4dd8-bdb8-67a83f1dbe7f" d="M45.6,60.17a.19.19,0,0,1,0-.07A43.61,43.61,0,0,1,111,28.47,4.23,4.23,0,0,1,111.5,27a15.67,15.67,0,0,1,1.56-2.22A47.86,47.86,0,0,0,41.4,59.53C41.25,63.91,45.35,63.75,45.6,60.17Z"/><path class="b1c8ead4-6484-4dd8-bdb8-67a83f1dbe7f" d="M130.36,79.55a43.62,43.62,0,0,1-65.61,22.87v5a47.86,47.86,0,0,0,69.67-26.59C135.49,77.08,131.83,75.89,130.36,79.55Z"/><path class="b4908ccd-ffcf-46e6-bef5-cbca7825634d" d="M143.1,2.27l31.57,24.9s.1,12.46-6.85,21.74S142.5,71.54,142.5,71.54s-21.86-13.77-26.23-25.63-4.5-20.46-4.5-20.46Z"/><rect class="b4908ccd-ffcf-46e6-bef5-cbca7825634d" x="18.4" y="90.36" width="46.35" height="33.41" rx="4.86"/><circle class="b4908ccd-ffcf-46e6-bef5-cbca7825634d" cx="142.5" cy="35.9" r="13.65"/><rect class="b1c8ead4-6484-4dd8-bdb8-67a83f1dbe7f" x="38.38" y="107.68" width="6.03" height="9.27" rx="3.01"/><path class="b4908ccd-ffcf-46e6-bef5-cbca7825634d" d="M24,124.53a5.64,5.64,0,0,1-5.64-5.64V93.72h-.69a5.63,5.63,0,0,0-5.63,5.64V125a5.63,5.63,0,0,0,5.63,5.63h40A5.63,5.63,0,0,0,63.33,125v-.5Z"/><path class="b4908ccd-ffcf-46e6-bef5-cbca7825634d" d="M25.66,90a43.7,43.7,0,0,0,.56-6.55c0-3.41,1.21-5.72,3.53-8.86A11.92,11.92,0,0,1,32.35,72a13.75,13.75,0,0,0-9.59,9.71,33.09,33.09,0,0,0-.42,8.33A14.8,14.8,0,0,1,25.66,90Z"/><path class="b1c8ead4-6484-4dd8-bdb8-67a83f1dbe7f" d="M59.73,125.66H23.22a6.45,6.45,0,0,1-6.44-6.44V95.36a6.45,6.45,0,0,1,6.44-6.44H59.73a6.45,6.45,0,0,1,6.44,6.44v23.86A6.45,6.45,0,0,1,59.73,125.66ZM23.22,91.76a3.6,3.6,0,0,0-3.6,3.6v23.86a3.6,3.6,0,0,0,3.6,3.6H59.73a3.6,3.6,0,0,0,3.6-3.6V95.36a3.6,3.6,0,0,0-3.6-3.6Z"/><path class="b1c8ead4-6484-4dd8-bdb8-67a83f1dbe7f" d="M58.43,91.76H47.87V84a6.4,6.4,0,0,0-12.79,0v7.76H24.52V84.39a17,17,0,0,1,33.91,0Zm-7.72-2.84h4.88V84.39a14.12,14.12,0,0,0-28.23,0v4.53h4.88V84a9.24,9.24,0,0,1,18.47,0Z"/><path class="f3a33da3-1936-4750-8907-0d02361251ca" d="M141.91,43.62a2.08,2.08,0,0,1-1.42-.55l-8.78-7.91A2.13,2.13,0,1,1,134.56,32l7.34,6.61,11.86-10.88a2.13,2.13,0,0,1,2.88,3.14L143.35,43.06A2.12,2.12,0,0,1,141.91,43.62Z"/><path class="b1c8ead4-6484-4dd8-bdb8-67a83f1dbe7f" d="M102,57.41c-.54-4.66-4.59-6.14-9.69-6.49l-.12-6.47-3.94.07.12,6.3-3.14.11-.13-6.35-3.93.08.12,6.47c-.85,0-1.69.07-2.51.08v0l-5.43.1.08,4.21s2.91-.11,2.86-.06a2,2,0,0,1,2.3,1.69l.14,7.37a3.32,3.32,0,0,1,.42,0H78.7l.2,10.33a1.39,1.39,0,0,1-1.45,1.33s-2.87,0-2.87,0L73.89,81l5.13-.1,2.81,0L82,87.38l3.94-.07-.13-6.48q1.62,0,3.15,0L89,87.24,93,87.17l-.12-6.54c6.61-.5,11.21-2.26,11.67-8.49.37-5-2-7.21-5.81-8C101,62.89,102.37,60.82,102,57.41Zm-5.24,14.1c.1,4.89-8.29,4.5-11,4.55l-.17-8.67C88.27,67.34,96.63,66.41,96.73,71.51Zm-2.07-12.2c.09,4.45-6.91,4.07-9.13,4.11l-.15-7.86C87.6,55.51,94.57,54.67,94.66,59.31Z"/><circle class="b383fe66-0e4d-40d0-97be-bee76d522968" cx="2.81" cy="40.49" r="2.81"/><circle class="b383fe66-0e4d-40d0-97be-bee76d522968" cx="163.41" cy="113.96" r="2.59"/><circle class="b383fe66-0e4d-40d0-97be-bee76d522968" cx="176.86" cy="70.28" r="2.59"/></g></g></svg>