<svg xmlns="http://www.w3.org/2000/svg" viewBox="0 0 180.46 127.64"><defs><style>.a2b4ce55-af23-4fb0-968f-c11e7d0f66a9,.b80cda45-cc63-4259-818a-c7dabd91ee96,.ba825a06-6b3c-4789-ba8a-d3f466f0782b{fill:#1c447d;}.ba825a06-6b3c-4789-ba8a-d3f466f0782b{opacity:0.15;}.bad0582a-315f-4c15-8fcd-1575be1cfe9c{fill:#1f3c70;}.b80cda45-cc63-4259-818a-c7dabd91ee96{opacity:0.3;}</style></defs><title>icon2</title><g id="e8b92afc-500e-4be2-aa89-9ca3b1300c50" data-name="Слой 2"><g id="f3527643-bf4d-4466-bcd0-948d60dfe66a" data-name="Слой 1"><path class="a2b4ce55-af23-4fb0-968f-c11e7d0f66a9" d="M83.43,46.57a1.49,1.49,0,0,1-.9-.29,1.51,1.51,0,0,1-.31-2.1c.24-.32,5.84-7.77,12.2-8.08.77,0,1.56-.05,2.38-.07,5.32-.1,10.83-.21,15.46-6.3.55-.73,1.06-1.43,1.56-2.1,4.35-5.86,7.48-10.09,16.27-10.09,3,0,5.27-2.07,7.67-4.27,2.61-2.39,5.31-4.86,9.21-4.86a1.5,1.5,0,0,1,0,3c-2.73,0-4.9,2-7.19,4.08-2.58,2.37-5.52,5-9.69,5-7.28,0-9.61,3.16-13.86,8.88l-1.58,2.12c-5.51,7.26-12.32,7.39-17.79,7.49-.79,0-1.55,0-2.29.07-4.94.24-9.89,6.8-9.94,6.87A1.51,1.51,0,0,1,83.43,46.57Z"/><circle class="ba825a06-6b3c-4789-ba8a-d3f466f0782b" cx="60.96" cy="75.09" r="37.49"/><circle class="ba825a06-6b3c-4789-ba8a-d3f466f0782b" cx="60.96" cy="75.09" r="26.96"/><path class="ba825a06-6b3c-4789-ba8a-d3f466f0782b" d="M122.52,116.61V126s31.53.51,32,0a6,6,0,0,0,1.23-3.75c0-1.71-.48-5.66-.48-5.66s3.41-6.27,4.84-7.84S163,102.91,163,101V85.38c0-2.25-.21-6.75-7.5-8.59s-24.75-6.07-24.75-6.07V46.66A6.38,6.38,0,0,0,125,40.52c-2.11,0-4.84-.21-4.84,5.52V79.18s-7.43,3.41-9,6.07-1.36,6.75-1.36,9.13v8.93Z"/><path class="bad0582a-315f-4c15-8fcd-1575be1cfe9c" d="M73.1,67.59c-.46-4-4-5.3-8.36-5.6l-.11-5.58-3.4.06.11,5.44c-.89,0-1.81.05-2.71.09l-.11-5.48-3.4.07.11,5.58c-.74,0-1.46.06-2.16.07h0l-4.69.09L48.45,66s2.51-.1,2.46,0a1.75,1.75,0,0,1,2,1.45L53,73.71a2.43,2.43,0,0,1,.36,0H53l.17,8.91a1.19,1.19,0,0,1-1.25,1.15s-2.47,0-2.47,0l-.6,4.07,4.42-.08,2.43,0,.11,5.65,3.4-.06-.11-5.59c.93,0,1.84,0,2.72,0l.1,5.56,3.4-.06-.1-5.64c5.7-.44,9.68-2,10.07-7.33.32-4.33-1.75-6.22-5-6.94C72.25,72.33,73.45,70.54,73.1,67.59ZM68.58,79.76c.08,4.22-7.15,3.89-9.46,3.93L59,76.21C61.28,76.16,68.5,75.36,68.58,79.76ZM66.8,69.24c.07,3.84-6,3.5-7.89,3.54L58.78,66C60.7,66,66.72,65.23,66.8,69.24Z"/><rect class="ba825a06-6b3c-4789-ba8a-d3f466f0782b" x="141.96" y="15.07" width="8.18" height="40.36"/><rect class="ba825a06-6b3c-4789-ba8a-d3f466f0782b" x="104.32" y="34.71" width="8.18" height="20.73"/><path class="ba825a06-6b3c-4789-ba8a-d3f466f0782b" d="M89.59,50.89c1.19,2,2.14,3.45,2.85,4.55h1.24v-12H85.5V46A17.71,17.71,0,0,1,89.59,50.89Z"/><path class="ba825a06-6b3c-4789-ba8a-d3f466f0782b" d="M123.14,25.3V41.07c2.61-1,4.7-.41,5.38.27a10.83,10.83,0,0,1,1.7,5v9.06h1.1V25.3Z"/><path class="ba825a06-6b3c-4789-ba8a-d3f466f0782b" d="M55.63,111.91C40,111.09,30.44,100.65,24.68,85.18s4.5-30,7.27-34.7a37.48,37.48,0,1,0,48.51,57C73.5,111.36,65.45,112.42,55.63,111.91Z"/><path class="a2b4ce55-af23-4fb0-968f-c11e7d0f66a9" d="M143,0c-3.56.16-3.76,3.78,0,3.91C146.8,3.79,146.6.17,143,0Z"/><path class="a2b4ce55-af23-4fb0-968f-c11e7d0f66a9" d="M132.58,0H80.38a6.65,6.65,0,0,0-6.65,6.65V39a26.69,26.69,0,0,1,3.93,1.25V6.65a2.72,2.72,0,0,1,2.72-2.72h52.2A2,2,0,1,0,132.58,0Z"/><path class="a2b4ce55-af23-4fb0-968f-c11e7d0f66a9" d="M119.55,62.47H96.47a26.83,26.83,0,0,1,1.72,3.93h21.36Z"/><path class="a2b4ce55-af23-4fb0-968f-c11e7d0f66a9" d="M156.21,0H153.5a2,2,0,1,0,0,3.93h2.71a2.72,2.72,0,0,1,2.72,2.72v53.1a2.72,2.72,0,0,1-2.72,2.72H131.07V66.4h25.14a6.65,6.65,0,0,0,6.65-6.65V6.65A6.65,6.65,0,0,0,156.21,0Z"/><path class="a2b4ce55-af23-4fb0-968f-c11e7d0f66a9" d="M61,35.25a39.6,39.6,0,0,0-19.84,5.32c-2.18,1.53-1.5,5,2.5,3.09l.62-.33c.1-.06.2-.1.3-.17a3.76,3.76,0,0,1,.61-.3A36,36,0,1,1,31.76,54.24l.09-.15c1.9-2.91-.44-5.51-2.73-2.91A39.82,39.82,0,1,0,61,35.25Z"/><path class="a2b4ce55-af23-4fb0-968f-c11e7d0f66a9" d="M120.17,97.09a1.44,1.44,0,0,1-1.44-1.44V46a6.65,6.65,0,0,1,6.73-6.85A6.18,6.18,0,0,1,129.92,41a7.33,7.33,0,0,1,2,5.38V69.76c4.14.93,18.22,4.12,22.25,5.36,4.88,1.5,6.53,3.14,8.41,6.26s1.35,7.73,1.33,7.93a1.42,1.42,0,0,1-1.58,1.28A1.45,1.45,0,0,1,161,89c.11-1.08.16-4.29-.95-6.14-1.48-2.47-2.57-3.7-6.77-5-4.54-1.39-23-5.51-23.16-5.55L129,72.07V46.35A4.69,4.69,0,0,0,127.87,43a3.33,3.33,0,0,0-2.41-1,3.79,3.79,0,0,0-3.85,4V95.65A1.43,1.43,0,0,1,120.17,97.09Z"/><path class="a2b4ce55-af23-4fb0-968f-c11e7d0f66a9" d="M154.93,118H122l-.41-.34c-5-4.3-13.52-12-13.52-15.08V89.18c0-6,10.34-10.84,11.52-11.37a1.45,1.45,0,1,1,1.18,2.64c-3.8,1.7-9.82,5.58-9.82,8.73v13.39c.24,1.5,6.38,7.63,12.11,12.54H153.6c2.85-3.37,7.09-8.82,7.5-10.62a42.2,42.2,0,0,0,.41-8.06,1.44,1.44,0,0,1,2.88-.12,43.51,43.51,0,0,1-.48,8.82c-.72,3.14-7.25,10.85-8.55,12.36Z"/><path class="a2b4ce55-af23-4fb0-968f-c11e7d0f66a9" d="M152,127.64H120.91a1.44,1.44,0,0,1,0-2.88H152c1.81,0,1.91,0,2.08-.22a.81.81,0,0,0,.1-.53c0-1.5,0-6,0-6a1.44,1.44,0,0,1,.1-2.88h2.78V124a3.26,3.26,0,0,1-.8,2.5C155.45,127.28,154.13,127.64,152,127.64Z"/><circle class="b80cda45-cc63-4259-818a-c7dabd91ee96" cx="52.69" cy="14.02" r="2.16"/><circle class="b80cda45-cc63-4259-818a-c7dabd91ee96" cx="2.16" cy="95.89" r="2.16"/><circle class="b80cda45-cc63-4259-818a-c7dabd91ee96" cx="178.29" cy="67.44" r="2.16"/></g></g></svg>