<svg xmlns="http://www.w3.org/2000/svg" viewBox="0 0 104.09 78.27"><defs><style>.b4306e51-5c16-483a-8525-c35803e821f1{fill:#1c447d;}</style></defs><title>logo_header</title><g id="ba489873-f838-4dfc-b368-5f3f59071a84" data-name="Слой 2"><g id="bf908d81-0e58-4bd6-b6bd-9c0b09fb94df" data-name="Слой 1"><path class="b4306e51-5c16-483a-8525-c35803e821f1" d="M47.76,17.36l.13.23-.59.94a.17.17,0,0,0,.08.27.38.38,0,0,0,0,.15,2.41,2.41,0,0,0,.42.65,1.53,1.53,0,0,0,.58-.3s0-.05,0-.05c.23,0,.37-.21.54-.33a.28.28,0,0,0,.1-.21c.09-.37.17-.73.26-1.1a.3.3,0,0,1,.07-.1l.44-.43A.16.16,0,0,1,50,17l1,.05c.34,0,.69,0,1,0a1.17,1.17,0,0,0,.68-.19l.11,0a7.55,7.55,0,0,0,1.27-.64.24.24,0,0,0,.08-.09l-.55.18a5.65,5.65,0,0,0,2.12-1.61h-.11s0,0,0,0a3.06,3.06,0,0,0,.55-1,11.9,11.9,0,0,0,.44-1.55.9.9,0,0,0,0-.13l-.12.12a7.35,7.35,0,0,1-1.66,1.44,2.83,2.83,0,0,1-1,.4,10.93,10.93,0,0,0-2.15.67,7.89,7.89,0,0,1-1.59.48l-.19,0a.41.41,0,0,1,.24-.58c0-.16,0-.2-.15-.21a1,1,0,0,1-.35-.07.44.44,0,0,0-.49.14,3.28,3.28,0,0,0-.39.53.63.63,0,0,1-.51.36,12.37,12.37,0,0,1-1.93.19,6.87,6.87,0,0,1-1.1-.13l-.49-.08L52,0h0l.09.18L71.72,41.51a.08.08,0,0,1,0,0,.2.2,0,0,0,0,.05H32.36c0-.14,11.13-23.66,11.37-24.06l.13,0c.42.11.84.19,1.26.28a2.65,2.65,0,0,0,1.34-.12c.4-.11.79-.24,1.18-.36Z"/><path class="b4306e51-5c16-483a-8525-c35803e821f1" d="M43.79,17.41l.49.06A.66.66,0,0,1,43.79,17.41Z"/><path class="b4306e51-5c16-483a-8525-c35803e821f1" d="M47.05,78.22V58.85l.48,0h4.2a9.73,9.73,0,0,1,4.07,18.5,9.18,9.18,0,0,1-3.92.93c-1.5,0-3,0-4.5,0A2.63,2.63,0,0,1,47.05,78.22Zm2.4-2.4.31,0H52a6.45,6.45,0,0,0,2.56-.57,7.34,7.34,0,0,0-1.67-13.95,32.29,32.29,0,0,0-3.27-.1s-.08,0-.13.06Z"/><path class="b4306e51-5c16-483a-8525-c35803e821f1" d="M20.83,78.26l9.68-20h.09a0,0,0,0,1,0,0Q35.34,68.15,40,78a1.62,1.62,0,0,1,.06.22H37.55c-.06-.13-.15-.28-.23-.44-.48-1-1-2-1.43-2.94a.61.61,0,0,0-.64-.4H25.76a.61.61,0,0,0-.64.4c-.47,1-1,2-1.46,3a.66.66,0,0,1-.71.43C22.28,78.24,21.61,78.26,20.83,78.26ZM26.42,72c.51.12,7.74.12,8.13,0-.11-.46-3.73-8-4-8.38C29.15,66.44,27.79,69.22,26.42,72Z"/><path class="b4306e51-5c16-483a-8525-c35803e821f1" d="M13.74,58.91,4.15,68.53l9.64,9.67a2.22,2.22,0,0,1-.36.06c-.85,0-1.7,0-2.54,0a.92.92,0,0,1-.73-.32c-2.36-2.38-4.74-4.76-7.11-7.13l-.57-.56c0,.26,0,.43,0,.6v7.36H.06a4,4,0,0,1-.06-.5V59.37c0-.16,0-.32,0-.54.79,0,1.55,0,2.37,0,0,.22,0,.4,0,.59v7.27l.1,0L3,66.34C5.33,64,7.7,61.59,10.07,59.2a1.15,1.15,0,0,1,.94-.39c.89,0,1.78,0,2.68,0Z"/><path class="b4306e51-5c16-483a-8525-c35803e821f1" d="M94.35,68.53l-6.86-9.72h.94c.5,0,1,0,1.51,0a.74.74,0,0,1,.72.38L95.49,66c.08.12.17.23.3.4.13-.16.24-.29.34-.43l4.64-6.6c.51-.7.27-.56,1.1-.57h2.2c-2.3,3.3-4.56,6.49-6.82,9.72l6.84,9.7-.47,0c-.67,0-1.34,0-2,0a.72.72,0,0,1-.68-.35c-1.09-1.57-4.3-6.13-4.81-6.85-.1-.13-.2-.25-.33-.43-.13.17-.24.3-.34.44-1.59,2.26-3.18,4.5-4.75,6.77a.85.85,0,0,1-.79.42c-.76,0-1.53,0-2.4,0C89.82,75,92.08,71.77,94.35,68.53Z"/><path class="b4306e51-5c16-483a-8525-c35803e821f1" d="M80.64,58.85v2.27c-.34.11-11.31.17-12.51.06a20.16,20.16,0,0,1,0-2.33Z"/><path class="b4306e51-5c16-483a-8525-c35803e821f1" d="M68.07,67.55h12.5a15.36,15.36,0,0,1,0,2.35H68.07V67.55Z"/><path class="b4306e51-5c16-483a-8525-c35803e821f1" d="M68.09,78.21V75.93c.36-.1,11.88-.13,12.44,0a8.83,8.83,0,0,1,0,2.31Z"/></g></g></svg>