<svg xmlns="http://www.w3.org/2000/svg" viewBox="0 0 277.11 59.76"><defs><style>.cls-1{fill:#1c447d;}</style></defs><title>logo-footer</title><g id="Слой_2" data-name="Слой 2"><g id="Слой_1-2" data-name="Слой 1"><path class="cls-1" d="M22.13,24.93l.18.34c-.28.45-.56.9-.85,1.35a.24.24,0,0,0,.12.38.53.53,0,0,0,0,.22,3.16,3.16,0,0,0,.61.94,2,2,0,0,0,.83-.44s0-.06.08-.06c.32-.05.52-.3.77-.48a.46.46,0,0,0,.15-.3c.12-.53.24-1.05.37-1.57a.31.31,0,0,1,.1-.15c.21-.21.42-.41.62-.62a.27.27,0,0,1,.24-.09l1.46.08c.49,0,1,0,1.48,0a1.69,1.69,0,0,0,1-.27.59.59,0,0,1,.14-.06,10.4,10.4,0,0,0,1.83-.91.33.33,0,0,0,.12-.14l-.79.27a8.3,8.3,0,0,0,3.05-2.32h-.17a.07.07,0,0,1,0-.05,4.23,4.23,0,0,0,.79-1.46,17,17,0,0,0,.63-2.22s0-.09,0-.19c-.09.09-.14.13-.18.18a10.63,10.63,0,0,1-2.38,2.06A4.08,4.08,0,0,1,31,20a15.16,15.16,0,0,0-3.09,1,10.54,10.54,0,0,1-2.28.69l-.29,0a.61.61,0,0,1,.36-.83c0-.24,0-.29-.22-.3a1.78,1.78,0,0,1-.51-.1.62.62,0,0,0-.69.2,4.26,4.26,0,0,0-.57.77.92.92,0,0,1-.72.51,18.56,18.56,0,0,1-2.78.27A9.46,9.46,0,0,1,18.58,22l-.71-.11L28.24,0h.05a0,0,0,0,1,0,0,2.15,2.15,0,0,1,.14.26l28.1,59.36a.11.11,0,0,1,0,0s0,0,0,.07H0c0-.2,16-34,16.33-34.56l.19,0c.6.16,1.21.28,1.81.41a3.93,3.93,0,0,0,1.93-.18c.57-.16,1.13-.34,1.7-.51A.74.74,0,0,1,22.13,24.93Z"/><path class="cls-1" d="M16.42,25l.71.1A1,1,0,0,1,16.42,25Z"/><path class="cls-1" d="M170.49,49.24V13c.3,0,.59,0,.88,0,2.62,0,5.25,0,7.87,0,9.93,0,16.95,8.19,17.75,15.92a18.23,18.23,0,0,1-10.15,18.66,17.08,17.08,0,0,1-7.32,1.74c-2.81.07-5.61,0-8.42,0A5.88,5.88,0,0,1,170.49,49.24Zm4.49-4.5c.22,0,.4,0,.57,0,1.37,0,2.75,0,4.12,0a12.37,12.37,0,0,0,4.78-1.07,13.72,13.72,0,0,0-3.12-26.08,56.45,56.45,0,0,0-6.11-.18c-.08,0-.16.07-.24.11Z"/><path class="cls-1" d="M121.46,49.3c6.1-12.58,12.11-25,18.1-37.37.1,0,.13,0,.16,0a.08.08,0,0,1,.07,0l17.59,36.88a2.85,2.85,0,0,1,.11.41h-4.76c-.13-.24-.29-.52-.43-.82-.9-1.83-1.82-3.65-2.69-5.5a1.12,1.12,0,0,0-1.19-.74q-8.86,0-17.74,0a1.13,1.13,0,0,0-1.19.75c-.89,1.87-1.86,3.7-2.74,5.58a1.2,1.2,0,0,1-1.32.8C124.18,49.27,122.93,49.3,121.46,49.3Zm10.46-11.67c1,.22,14.46.21,15.19,0-.21-.86-7-15-7.52-15.67Z"/><path class="cls-1" d="M108.21,13.14l-17.93,18,18,18.07a4.8,4.8,0,0,1-.67.11c-1.59,0-3.17,0-4.76,0a1.74,1.74,0,0,1-1.35-.58q-6.63-6.69-13.3-13.35c-.29-.3-.6-.59-1.07-1,0,.51-.06.82-.06,1.13q0,6.3,0,12.62v1.15H82.63a7.46,7.46,0,0,1-.1-1q0-17.14,0-34.3c0-.3,0-.6.07-1,1.49-.07,2.9,0,4.43,0,0,.41.06.76.06,1.11V27.66l.2.07c.25-.23.52-.46.76-.71q6.66-6.66,13.31-13.34a2.13,2.13,0,0,1,1.75-.74c1.67.05,3.34,0,5,0Z"/><path class="cls-1" d="M258.9,31.11,246.09,13h1.74c.95,0,1.9.05,2.84,0a1.39,1.39,0,0,1,1.34.71c2.22,3.17,8.25,11.68,9,12.77.16.22.33.43.58.75.23-.3.44-.54.62-.8,2.9-4.11,5.78-8.23,8.69-12.33.94-1.33.51-1.06,2-1.08,1.31,0,2.61,0,4.13,0-4.3,6.16-8.54,12.14-12.76,18.17l12.78,18.13c-.4,0-.63,0-.87,0-1.25,0-2.5,0-3.75,0a1.32,1.32,0,0,1-1.27-.66c-2-2.93-8-11.45-9-12.79-.17-.24-.36-.48-.61-.81-.24.32-.45.57-.63.83-3,4.21-6,8.41-8.89,12.64a1.53,1.53,0,0,1-1.48.79c-1.42-.06-2.85,0-4.49,0C250.43,43.14,254.67,37.17,258.9,31.11Z"/><path class="cls-1" d="M233.28,13v4.25c-.64.2-21.15.32-23.4.12-.06-1.43-.06-2.87,0-4.37Z"/><path class="cls-1" d="M209.77,29.29h23.38a27.84,27.84,0,0,1,0,4.38H209.78c0-.73,0-1.45,0-2.17Z"/><path class="cls-1" d="M209.81,49.22V45c.68-.19,22.22-.24,23.27-.06a16.8,16.8,0,0,1,0,4.33Z"/></g></g></svg>