<svg xmlns="http://www.w3.org/2000/svg" viewBox="0 0 26.19 26.19"><defs><style>.cls-1{fill:#1c447d;}</style></defs><title>user</title><g id="Слой_2" data-name="Слой 2"><g id="Слой_1-2" data-name="Слой 1"><ellipse class="cls-1" cx="13.09" cy="10.76" rx="3.63" ry="3.9"/><path class="cls-1" d="M15.3,26a13.1,13.1,0,1,0-4.41,0l.33.05c.23,0,.46.07.7.09a11.31,11.31,0,0,0,1.17.06,11.51,11.51,0,0,0,1.18-.06c.23,0,.46-.06.69-.09ZM2,13.09a11.14,11.14,0,1,1,18.53,8.32c-.89-2.79-3.86-4.84-7.4-4.84A7.57,7.57,0,0,0,5.7,21.41,11.12,11.12,0,0,1,2,13.09Z"/></g></g></svg>